<svg width="900" height="620" viewBox="0 0 900 620" fill="none" xmlns="http://www.w3.org/2000/svg">
  <rect width="900" height="620" rx="46" fill="#090909"/>
  <circle cx="770" cy="105" r="190" fill="#dc2626" opacity="0.28"/>
  <circle cx="110" cy="540" r="210" fill="#dc2626" opacity="0.18"/>
  <rect x="82" y="74" width="736" height="472" rx="40" fill="url(#g)" stroke="rgba(255,255,255,0.12)" stroke-width="3"/>

  <rect x="190" y="122" width="350" height="265" rx="24" fill="#111827" stroke="#2b2b2b" stroke-width="6"/>
  <rect x="216" y="150" width="298" height="196" rx="16" fill="#f8fafc"/>
  <rect x="242" y="178" width="150" height="22" rx="11" fill="#dc2626"/>
  <rect x="242" y="222" width="230" height="16" rx="8" fill="#d1d5db"/>
  <rect x="242" y="255" width="190" height="16" rx="8" fill="#d1d5db"/>
  <rect x="242" y="288" width="120" height="16" rx="8" fill="#d1d5db"/>
  <rect x="332" y="386" width="70" height="62" fill="#1f2937"/>
  <rect x="260" y="438" width="215" height="35" rx="18" fill="#111827"/>

  <rect x="575" y="255" width="145" height="135" rx="22" fill="#161616" stroke="#2b2b2b" stroke-width="5"/>
  <rect x="598" y="280" width="99" height="38" rx="10" fill="#f8fafc"/>
  <rect x="606" y="336" width="83" height="10" rx="5" fill="#dc2626"/>
  <rect x="606" y="358" width="62" height="10" rx="5" fill="#4b5563"/>

  <rect x="570" y="412" width="165" height="88" rx="18" fill="#f8fafc"/>
  <rect x="590" y="432" width="125" height="14" rx="7" fill="#111827"/>
  <rect x="590" y="461" width="82" height="12" rx="6" fill="#dc2626"/>

  <rect x="160" y="422" width="72" height="72" rx="18" fill="#dc2626"/>
  <text x="196" y="471" text-anchor="middle" font-family="Arial, Helvetica, sans-serif" font-size="42" font-weight="900" fill="white">R</text>

  <text x="260" y="520" font-family="Arial, Helvetica, sans-serif" font-size="34" font-weight="900" fill="white">Radio POS</text>
  <text x="260" y="556" font-family="Arial, Helvetica, sans-serif" font-size="22" fill="rgba(255,255,255,0.72)">POS Machine • Billing Software • Barcode • Reports</text>

  <defs>
    <linearGradient id="g" x1="82" y1="74" x2="818" y2="546" gradientUnits="userSpaceOnUse">
      <stop stop-color="rgba(255,255,255,0.08)"/>
      <stop offset="0.45" stop-color="rgba(255,255,255,0.04)"/>
      <stop offset="1" stop-color="rgba(220,38,38,0.18)"/>
    </linearGradient>
  </defs>
</svg>
